<?xml version="1.0" encoding="UTF-8"?>
<!DOCTYPE svg PUBLIC "-//W3C//DTD SVG 1.1//EN" "http://www.w3.org/Graphics/SVG/1.1/DTD/svg11.dtd">
<svg xmlns="http://www.w3.org/2000/svg" version="1.1" width="225px" height="220px" style="shape-rendering:geometricPrecision; text-rendering:geometricPrecision; image-rendering:optimizeQuality; fill-rule:evenodd; clip-rule:evenodd" xmlns:xlink="http://www.w3.org/1999/xlink">
<g><path style="opacity:1" fill="#fbfbfb" d="M -0.5,-0.5 C 74.5,-0.5 149.5,-0.5 224.5,-0.5C 224.5,72.8333 224.5,146.167 224.5,219.5C 149.5,219.5 74.5,219.5 -0.5,219.5C -0.5,146.167 -0.5,72.8333 -0.5,-0.5 Z"/></g>
<g><path style="opacity:1" fill="#dcd3d6" d="M 110.5,13.5 C 138.105,28.6374 165.438,44.304 192.5,60.5C 193.833,92.5 193.833,124.5 192.5,156.5C 165.664,172.419 138.664,188.086 111.5,203.5C 84.5,188.167 57.5,172.833 30.5,157.5C 29.1667,124.833 29.1667,92.1667 30.5,59.5C 57.4639,44.5029 84.1306,29.1696 110.5,13.5 Z"/></g>
<g><path style="opacity:1" fill="#9f838b" d="M 150.5,77.5 C 150.5,99.5 150.5,121.5 150.5,143.5C 146.5,143.5 142.5,143.5 138.5,143.5C 138.667,130.163 138.5,116.829 138,103.5C 130.413,116.338 123.08,129.338 116,142.5C 111.982,145.439 108.315,145.105 105,141.5C 98.1545,129.14 91.3212,116.806 84.5,104.5C 84.2172,103.711 83.7172,103.044 83,102.5C 82.5001,116.163 82.3334,129.829 82.5,143.5C 78.5,143.5 74.5,143.5 70.5,143.5C 70.3334,121.497 70.5,99.4975 71,77.5C 74.1779,72.6288 77.8445,72.2955 82,76.5C 91.5,92.8333 101,109.167 110.5,125.5C 120.571,109.034 130.404,92.367 140,75.5C 144.296,72.3928 147.796,73.0595 150.5,77.5 Z"/></g>
<g><path style="opacity:1" fill="#baa6ac" d="M 150.5,77.5 C 151.497,99.6604 151.831,121.994 151.5,144.5C 146.968,144.818 142.634,144.485 138.5,143.5C 142.5,143.5 146.5,143.5 150.5,143.5C 150.5,121.5 150.5,99.5 150.5,77.5 Z"/></g>
<g><path style="opacity:1" fill="#bcaab0" d="M 84.5,104.5 C 83.5044,117.656 83.1711,130.99 83.5,144.5C 78.9677,144.818 74.6344,144.485 70.5,143.5C 74.5,143.5 78.5,143.5 82.5,143.5C 82.3334,129.829 82.5001,116.163 83,102.5C 83.7172,103.044 84.2172,103.711 84.5,104.5 Z"/></g>
</svg>
