<?xml version="1.0" encoding="UTF-8"?>
<!DOCTYPE svg PUBLIC "-//W3C//DTD SVG 1.1//EN" "http://www.w3.org/Graphics/SVG/1.1/DTD/svg11.dtd">
<svg xmlns="http://www.w3.org/2000/svg" version="1.1" width="1210px" height="1078px" style="shape-rendering:geometricPrecision; text-rendering:geometricPrecision; image-rendering:optimizeQuality; fill-rule:evenodd; clip-rule:evenodd" xmlns:xlink="http://www.w3.org/1999/xlink">
<g><path style="opacity:1" fill="#f8f8f8" d="M -0.5,-0.5 C 402.833,-0.5 806.167,-0.5 1209.5,-0.5C 1209.5,358.833 1209.5,718.167 1209.5,1077.5C 806.167,1077.5 402.833,1077.5 -0.5,1077.5C -0.5,718.167 -0.5,358.833 -0.5,-0.5 Z"/></g>
<g><path style="opacity:1" fill="#cca6a7" d="M 737.5,489.5 C 737.5,490.167 737.167,490.5 736.5,490.5C 722.337,499.319 714.337,511.986 712.5,528.5C 712.333,504.164 712.5,479.831 713,455.5C 714.623,449.048 718.79,445.715 725.5,445.5C 730.275,445.968 733.775,448.301 736,452.5C 737.394,464.78 737.894,477.114 737.5,489.5 Z"/></g>
<g><path style="opacity:1" fill="#cca7a8" d="M 539.5,457.5 C 548.376,457.369 553.709,461.702 555.5,470.5C 554.181,477.819 549.847,482.153 542.5,483.5C 531.177,480.188 528.01,473.188 533,462.5C 534.965,460.45 537.132,458.783 539.5,457.5 Z"/></g>
<g><path style="opacity:1" fill="#c07371" d="M 245.5,499.5 C 239.28,507.934 235.28,517.267 233.5,527.5C 229.364,511.421 219.031,504.921 202.5,508C 193.333,510.5 187.5,516.333 185,525.5C 184.667,540.833 184.333,556.167 184,571.5C 179.713,579.729 173.546,581.563 165.5,577C 163.19,575.363 161.69,573.196 161,570.5C 160.333,555.167 160.333,539.833 161,524.5C 169.026,494.48 188.526,480.98 219.5,484C 229.619,486.886 238.285,492.053 245.5,499.5 Z"/></g>
<g><path style="opacity:1" fill="#cca6a7" d="M 258.5,527.5 C 257.041,517.137 253.041,507.803 246.5,499.5C 260.466,484.461 277.466,479.627 297.5,485C 315.46,491.412 326.626,503.912 331,522.5C 331.667,538.833 331.667,555.167 331,571.5C 326.923,579.725 320.756,581.892 312.5,578C 310.622,576.457 309.122,574.624 308,572.5C 307.667,558.5 307.333,544.5 307,530.5C 305.97,518.801 299.803,511.301 288.5,508C 273.041,506.223 263.041,512.723 258.5,527.5 Z"/></g>
<g><path style="opacity:1" fill="#c07371" d="M 405.5,484.5 C 397.286,486.567 393.786,491.9 395,500.5C 395.792,502.587 396.959,504.421 398.5,506C 395.964,506.186 393.631,506.686 391.5,507.5C 382.378,508.448 375.878,513.114 372,521.5C 367.117,545.616 376.951,557.116 401.5,556C 414.437,550.973 420.437,541.473 419.5,527.5C 424.466,538.102 429.466,548.769 434.5,559.5C 433.833,559.5 433.5,559.833 433.5,560.5C 418.084,579.245 398.75,584.745 375.5,577C 351.871,563.906 342.704,544.073 348,517.5C 358.764,491.868 377.931,480.868 405.5,484.5 Z"/></g>
<g><path style="opacity:1" fill="#c07371" d="M 496.5,483.5 C 524.232,481.103 543.065,492.77 553,518.5C 558.072,546.189 547.906,566.023 522.5,578C 501.063,584.051 482.897,578.885 468,562.5C 450.699,535.156 454.532,511.322 479.5,491C 485.032,487.894 490.699,485.394 496.5,483.5 Z"/></g>
<g><path style="opacity:1" fill="#c07472" d="M 651.5,483.5 C 659.238,483.144 666.905,483.644 674.5,485C 680.125,487.479 685.458,490.479 690.5,494C 700.431,502.779 699.765,510.446 688.5,517C 681.972,517.595 676.639,515.262 672.5,510C 657.286,503.92 645.452,507.753 637,521.5C 631.912,541.674 639.578,553.341 660,556.5C 668.055,555.888 674.888,552.721 680.5,547C 688.236,544.45 693.736,546.95 697,554.5C 697.667,556.833 697.667,559.167 697,561.5C 684.198,577.436 667.698,583.269 647.5,579C 620.933,569.07 609.099,549.903 612,521.5C 618.223,501.441 631.39,488.774 651.5,483.5 Z"/></g>
<g><path style="opacity:1" fill="#c07371" d="M 749.5,579.5 C 760.181,577.361 763.681,571.027 760,560.5C 759.167,559.667 758.333,558.833 757.5,558C 760.365,557.817 763.031,557.317 765.5,556.5C 780.976,552.58 787.809,542.58 786,526.5C 779.781,510.474 768.281,504.64 751.5,509C 744.029,512.633 739.363,518.466 737.5,526.5C 736.505,514.678 736.172,502.678 736.5,490.5C 737.167,490.5 737.5,490.167 737.5,489.5C 769.497,476.552 792.997,485.552 808,516.5C 813.78,537.552 808.613,555.386 792.5,570C 786.391,574.388 779.724,577.721 772.5,580C 764.785,580.767 757.118,580.6 749.5,579.5 Z"/></g>
<g><path style="opacity:1" fill="#c07371" d="M 862.5,483.5 C 891.37,481.345 910.203,494.012 919,521.5C 922.427,549.719 910.927,568.885 884.5,579C 854.542,583.773 834.375,571.94 824,543.5C 819.667,522.157 826.167,504.99 843.5,492C 849.453,488.081 855.786,485.248 862.5,483.5 Z"/></g>
<g><path style="opacity:1" fill="#c07472" d="M 976.5,519.5 C 965.771,520.748 956.104,524.748 947.5,531.5C 947.167,531.5 946.833,531.5 946.5,531.5C 938.15,522.8 932.984,512.467 931,500.5C 929.486,492.699 932.319,487.199 939.5,484C 946.034,483.184 950.868,485.684 954,491.5C 954.06,507.04 961.56,516.373 976.5,519.5 Z"/></g>
<g><path style="opacity:1" fill="#c07472" d="M 1012.5,531.5 C 1012.17,531.5 1011.83,531.5 1011.5,531.5C 1003.06,525.278 993.729,521.278 983.5,519.5C 992.48,517.682 998.98,512.682 1003,504.5C 1003.67,500.5 1004.33,496.5 1005,492.5C 1007.94,485.612 1013.11,482.779 1020.5,484C 1027.28,488.334 1029.78,494.501 1028,502.5C 1025.44,513.631 1020.27,523.298 1012.5,531.5 Z"/></g>
<g><path style="opacity:1" fill="#c07472" d="M 577.5,484.5 C 585.923,482.457 591.423,485.457 594,493.5C 594.667,519.5 594.667,545.5 594,571.5C 589.301,579.987 582.801,581.654 574.5,576.5C 572.703,574.869 571.536,572.869 571,570.5C 570.333,544.5 570.333,518.5 571,492.5C 572.305,489.039 574.471,486.372 577.5,484.5 Z"/></g>
<g><path style="opacity:1" fill="#c68c8c" d="M 405.5,484.5 C 423.992,489.659 436.325,501.325 442.5,519.5C 445.821,534.19 443.154,547.523 434.5,559.5C 429.466,548.769 424.466,538.102 419.5,527.5C 415.393,513.452 406.06,506.785 391.5,507.5C 393.631,506.686 395.964,506.186 398.5,506C 396.959,504.421 395.792,502.587 395,500.5C 393.786,491.9 397.286,486.567 405.5,484.5 Z"/></g>
<g><path style="opacity:1" fill="#c68c8c" d="M 736.5,490.5 C 736.172,502.678 736.505,514.678 737.5,526.5C 736.216,546.546 745.549,556.546 765.5,556.5C 763.031,557.317 760.365,557.817 757.5,558C 758.333,558.833 759.167,559.667 760,560.5C 763.681,571.027 760.181,577.361 749.5,579.5C 725.198,571.245 712.865,554.245 712.5,528.5C 714.337,511.986 722.337,499.319 736.5,490.5 Z"/></g>
<g><path style="opacity:1" fill="#c68d8d" d="M 245.5,499.5 C 245.833,499.5 246.167,499.5 246.5,499.5C 253.041,507.803 257.041,517.137 258.5,527.5C 258.667,541.837 258.5,556.171 258,570.5C 254.55,579.446 248.384,581.946 239.5,578C 236.894,576.062 235.061,573.562 234,570.5C 233.5,556.171 233.333,541.837 233.5,527.5C 235.28,517.267 239.28,507.934 245.5,499.5 Z"/></g>
<g><path style="opacity:1" fill="#f8f7f7" d="M 391.5,507.5 C 406.06,506.785 415.393,513.452 419.5,527.5C 420.437,541.473 414.437,550.973 401.5,556C 376.951,557.116 367.117,545.616 372,521.5C 375.878,513.114 382.378,508.448 391.5,507.5 Z"/></g>
<g><path style="opacity:1" fill="#f8f7f7" d="M 499.5,507.5 C 523.413,506.581 533.246,517.914 529,541.5C 522.011,554.904 511.178,559.404 496.5,555C 482.865,547.698 478.365,536.531 483,521.5C 486.685,514.591 492.185,509.924 499.5,507.5 Z"/></g>
<g><path style="opacity:1" fill="#f8f7f7" d="M 765.5,556.5 C 745.549,556.546 736.216,546.546 737.5,526.5C 739.363,518.466 744.029,512.633 751.5,509C 768.281,504.64 779.781,510.474 786,526.5C 787.809,542.58 780.976,552.58 765.5,556.5 Z"/></g>
<g><path style="opacity:1" fill="#f8f7f7" d="M 864.5,507.5 C 879.38,505.018 889.547,510.684 895,524.5C 897.379,547.121 887.212,557.621 864.5,556C 850.803,550.449 844.97,540.283 847,525.5C 849.683,516.318 855.517,510.318 864.5,507.5 Z"/></g>
<g><path style="opacity:1" fill="#c68c8c" d="M 976.5,519.5 C 978.833,519.5 981.167,519.5 983.5,519.5C 993.729,521.278 1003.06,525.278 1011.5,531.5C 1001.9,540.291 990.567,544.624 977.5,544.5C 977.167,544.5 976.833,544.5 976.5,544.5C 965.554,543.072 955.888,538.738 947.5,531.5C 956.104,524.748 965.771,520.748 976.5,519.5 Z"/></g>
<g><path style="opacity:1" fill="#cca6a7" d="M 442.5,519.5 C 449.558,533.956 456.392,548.622 463,563.5C 464.955,573.05 461.122,578.717 451.5,580.5C 447.695,580.015 444.529,578.348 442,575.5C 439.604,570.018 436.771,565.018 433.5,560.5C 433.5,559.833 433.833,559.5 434.5,559.5C 443.154,547.523 445.821,534.19 442.5,519.5 Z"/></g>
<g><path style="opacity:1" fill="#cca6a7" d="M 946.5,531.5 C 946.833,531.5 947.167,531.5 947.5,531.5C 955.888,538.738 965.554,543.072 976.5,544.5C 967.783,546.106 961.283,550.773 957,558.5C 955.893,563.477 954.893,568.477 954,573.5C 949.8,580.343 943.967,582.176 936.5,579C 930.264,572.588 928.764,565.088 932,556.5C 934.793,546.904 939.627,538.57 946.5,531.5 Z"/></g>
<g><path style="opacity:1" fill="#cca6a7" d="M 1011.5,531.5 C 1011.83,531.5 1012.17,531.5 1012.5,531.5C 1024.26,542.62 1029.43,556.286 1028,572.5C 1022.65,581.439 1015.82,582.773 1007.5,576.5C 1006.47,575.3 1005.64,573.966 1005,572.5C 1004.32,554.658 995.157,545.325 977.5,544.5C 990.567,544.624 1001.9,540.291 1011.5,531.5 Z"/></g>
<g><path style="opacity:1" fill="#cca6a7" d="M 469.5,586.5 C 472.518,586.335 475.518,586.502 478.5,587C 492.955,600.055 508.955,602.055 526.5,593C 534.38,584.25 541.88,584.416 549,593.5C 550.587,599.606 549.087,604.772 544.5,609C 526.348,622.895 506.348,626.228 484.5,619C 476.216,615.383 469.05,610.216 463,603.5C 461.305,596.241 463.472,590.575 469.5,586.5 Z"/></g>
</svg>
